<svg width="24" height="25" viewBox="0 0 24 25" fill="none" xmlns="http://www.w3.org/2000/svg">
<path d="M6.50014 17.5008H17.3294C18.2793 17.5008 18.7543 17.5008 19.1414 17.3292C19.4827 17.1779 19.7748 16.934 19.9847 16.6253C20.2228 16.2752 20.3078 15.8078 20.4777 14.8732L21.8285 7.44388C21.8874 7.11995 21.9169 6.95798 21.8714 6.83151C21.8315 6.72056 21.7536 6.62728 21.6516 6.56816C21.5353 6.50077 21.3707 6.50077 21.0414 6.50077H5.00014M2 2.50077H3.3164C3.55909 2.50077 3.68044 2.50077 3.77858 2.5451C3.86507 2.58417 3.93867 2.64705 3.99075 2.7264C4.04984 2.81642 4.06876 2.93628 4.10662 3.176L6.89338 20.8255C6.93124 21.0653 6.95016 21.1851 7.00925 21.2751C7.06133 21.3545 7.13493 21.4174 7.22142 21.4564C7.31956 21.5008 7.44091 21.5008 7.6836 21.5008H19" stroke="white" stroke-width="2" stroke-linecap="round" stroke-linejoin="round"/>
</svg>
