<svg width="8" height="8" viewBox="0 0 8 8" fill="none" xmlns="http://www.w3.org/2000/svg">
<path d="M3.94917 0.780496C4.03543 0.605741 4.07856 0.518363 4.13711 0.490446C4.18805 0.466157 4.24724 0.466157 4.29818 0.490446C4.35673 0.518363 4.39986 0.605741 4.48613 0.780496L5.30451 2.43844C5.32997 2.49004 5.34271 2.51583 5.36131 2.53586C5.37779 2.55359 5.39755 2.56796 5.4195 2.57817C5.44429 2.5897 5.47275 2.59386 5.52968 2.60218L7.36028 2.86975C7.55305 2.89792 7.64943 2.91201 7.69404 2.95909C7.73284 3.00006 7.7511 3.05635 7.74371 3.11229C7.73522 3.17659 7.66544 3.24456 7.52588 3.38049L6.20175 4.67019C6.16047 4.7104 6.13983 4.7305 6.12651 4.75442C6.11472 4.77559 6.10716 4.79886 6.10424 4.82292C6.10094 4.8501 6.10581 4.87849 6.11555 4.93529L6.42799 6.75694C6.46094 6.94907 6.47742 7.04514 6.44645 7.10215C6.41951 7.15175 6.37162 7.18654 6.31612 7.19682C6.25234 7.20865 6.16607 7.16328 5.99353 7.07255L4.35701 6.21191C4.30601 6.1851 4.28052 6.17169 4.25366 6.16642C4.22988 6.16176 4.20542 6.16176 4.18163 6.16642C4.15477 6.17169 4.12928 6.1851 4.07829 6.21191L2.44176 7.07255C2.26922 7.16328 2.18296 7.20865 2.11917 7.19682C2.06367 7.18654 2.01578 7.15175 1.98884 7.10215C1.95787 7.04514 1.97435 6.94907 2.0073 6.75694L2.31974 4.93529C2.32948 4.87849 2.33435 4.8501 2.33105 4.82292C2.32814 4.79886 2.32057 4.77559 2.30878 4.75442C2.29546 4.7305 2.27482 4.7104 2.23355 4.67019L0.909414 3.38049C0.769855 3.24456 0.700075 3.17659 0.691584 3.11229C0.684196 3.05635 0.702448 3.00006 0.741257 2.95909C0.785863 2.91201 0.882248 2.89792 1.07502 2.86975L2.90561 2.60218C2.96254 2.59386 2.991 2.5897 3.01579 2.57817C3.03774 2.56796 3.0575 2.55359 3.07398 2.53586C3.09259 2.51583 3.10532 2.49004 3.13079 2.43844L3.94917 0.780496Z" fill="#FAC515"/>
</svg>
